<?xml version="1.0" encoding="UTF-8" standalone="no"?>
<!DOCTYPE svg PUBLIC "-//W3C//DTD SVG 1.1//EN"
 "http://www.w3.org/Graphics/SVG/1.1/DTD/svg11.dtd">
<!-- Generated by graphviz version 2.42.4 (0)
 -->
<!-- Title: G Pages: 1 -->
<svg width="1808pt" height="1169pt"
 viewBox="0.00 0.00 1808.00 1169.00" xmlns="http://www.w3.org/2000/svg" xmlns:xlink="http://www.w3.org/1999/xlink">
<g id="graph0" class="graph" transform="scale(1 1) rotate(0) translate(36 1133)">
<title>G</title>
<polygon fill="white" stroke="transparent" points="-36,36 -36,-1133 1772,-1133 1772,36 -36,36"/>
<g id="clust1" class="cluster">
<title>cluster_obs</title>
<path fill="#eff6ff" stroke="#bfdbfe" d="M20,-607C20,-607 381,-607 381,-607 387,-607 393,-613 393,-619 393,-619 393,-1077 393,-1077 393,-1083 387,-1089 381,-1089 381,-1089 20,-1089 20,-1089 14,-1089 8,-1083 8,-1077 8,-1077 8,-619 8,-619 8,-613 14,-607 20,-607"/>
<text text-anchor="middle" x="200.5" y="-1072.2" font-family="Helvetica,sans-Serif" font-weight="bold" font-size="16.00">Observable signals / ML features</text>
</g>
<g id="clust2" class="cluster">
<title>cluster_mech</title>
<path fill="#f5f3ff" stroke="#ddd6fe" d="M588,-545C588,-545 980,-545 980,-545 986,-545 992,-551 992,-557 992,-557 992,-847 992,-847 992,-853 986,-859 980,-859 980,-859 588,-859 588,-859 582,-859 576,-853 576,-847 576,-847 576,-557 576,-557 576,-551 582,-545 588,-545"/>
<text text-anchor="middle" x="784" y="-842.2" font-family="Helvetica,sans-Serif" font-weight="bold" font-size="16.00">Physiological mechanisms</text>
</g>
<g id="clust3" class="cluster">
<title>cluster_bridge</title>
<path fill="#fff7ed" stroke="#fed7aa" d="M855.5,-65C855.5,-65 1227,-65 1227,-65 1233,-65 1239,-71 1239,-77 1239,-77 1239,-367 1239,-367 1239,-373 1233,-379 1227,-379 1227,-379 855.5,-379 855.5,-379 849.5,-379 843.5,-373 843.5,-367 843.5,-367 843.5,-77 843.5,-77 843.5,-71 849.5,-65 855.5,-65"/>
<text text-anchor="middle" x="1041.25" y="-362.2" font-family="Helvetica,sans-Serif" font-weight="bold" font-size="16.00">Neurobiological / affective bridge</text>
</g>
<g id="clust4" class="cluster">
<title>cluster_hyp</title>
<path fill="#f0fdf4" stroke="#bbf7d0" d="M1350,-92C1350,-92 1724,-92 1724,-92 1730,-92 1736,-98 1736,-104 1736,-104 1736,-550 1736,-550 1736,-556 1730,-562 1724,-562 1724,-562 1350,-562 1350,-562 1344,-562 1338,-556 1338,-550 1338,-550 1338,-104 1338,-104 1338,-98 1344,-92 1350,-92"/>
<text text-anchor="middle" x="1537" y="-545.2" font-family="Helvetica,sans-Serif" font-weight="bold" font-size="16.00">Cautious state hypotheses &#45; not diagnoses</text>
</g>
<!-- HRV&#45;&gt;ANS -->
<g id="edge1" class="edge">
<title>HRV&#45;&gt;ANS</title>
<path fill="none" stroke="#64748b" stroke-width="1.2" d="M135.87,-967.5C251.34,-967.5 504,-967.5 504,-967.5 504,-967.5 504,-576 504,-576 504,-576 576.97,-576 576.97,-576"/>
<polygon fill="#64748b" stroke="#64748b" stroke-width="1.2" points="576.97,-578.45 583.97,-576 576.97,-573.55 576.97,-578.45"/>
<text text-anchor="middle" x="347" y="-763.8" font-family="Helvetica,sans-Serif" font-size="9.00">supports</text>
</g>
<!-- HRV&#45;&gt;StressVuln -->
<g id="edge2" class="edge">
<title>HRV&#45;&gt;StressVuln</title>
<path fill="none" stroke="#64748b" stroke-width="1.2" stroke-dasharray="5,2" d="M135.56,-948.5C161.21,-948.5 186,-948.5 186,-948.5 186,-948.5 186,-319.67 186,-319.67 186,-319.67 864.74,-319.67 864.74,-319.67"/>
<polygon fill="#64748b" stroke="#64748b" stroke-width="1.2" points="864.74,-322.12 871.74,-319.67 864.74,-317.22 864.74,-322.12"/>
<text text-anchor="middle" x="504" y="-587.8" font-family="Helvetica,sans-Serif" font-size="9.00">may indicate</text>
<text text-anchor="middle" x="504" y="-577.8" font-family="Helvetica,sans-Serif" font-size="9.00">non&#45;specific</text>
</g>
<!-- HRV&#45;&gt;forbidden -->
<g id="edge25" class="edge">
<title>HRV&#45;&gt;forbidden</title>
<path fill="none" stroke="#e11d48" stroke-width="1.2" stroke-dasharray="1,5" d="M135.71,-958C201.04,-958 300,-958 300,-958 300,-958 300,-675.66 300,-599"/>
</g>
<!-- EDA&#45;&gt;SNS -->
<g id="edge3" class="edge">
<title>EDA&#45;&gt;SNS</title>
<path fill="none" stroke="#64748b" stroke-width="1.2" d="M125.68,-887C259.49,-887 638,-887 638,-887 638,-887 638,-832.2 638,-832.2"/>
<polygon fill="#64748b" stroke="#64748b" stroke-width="1.2" points="640.45,-832.2 638,-825.2 635.55,-832.2 640.45,-832.2"/>
<text text-anchor="middle" x="347" y="-513.8" font-family="Helvetica,sans-Serif" font-size="9.00">supports</text>
</g>
<!-- EDA&#45;&gt;forbidden -->
<g id="edge26" class="edge">
<title>EDA&#45;&gt;forbidden</title>
<path fill="none" stroke="#e11d48" stroke-width="1.2" stroke-dasharray="1,5" d="M125.7,-875C187.66,-875 290,-875 290,-875 290,-875 290,-664.99 290,-599.36"/>
</g>
<!-- Sleep&#45;&gt;Cortisol -->
<g id="edge9" class="edge">
<title>Sleep&#45;&gt;Cortisol</title>
<path fill="none" stroke="#64748b" stroke-width="1.2" stroke-dasharray="5,2" d="M132.13,-732.67C206.92,-732.67 335,-732.67 335,-732.67 335,-732.67 335,-803.77 335,-803.77"/>
<polygon fill="#64748b" stroke="#64748b" stroke-width="1.2" points="332.55,-803.77 335,-810.77 337.45,-803.77 332.55,-803.77"/>
<text text-anchor="middle" x="206.5" y="-831.8" font-family="Helvetica,sans-Serif" font-size="9.00">weak / mixed</text>
</g>
<!-- Sleep&#45;&gt;Recovery -->
<g id="edge8" class="edge">
<title>Sleep&#45;&gt;Recovery</title>
<path fill="none" stroke="#64748b" stroke-width="1.2" d="M132.2,-706.42C302.81,-706.42 829,-706.42 829,-706.42 829,-706.42 829,-578.33 829,-578.33 829,-578.33 873.48,-578.33 873.48,-578.33"/>
<polygon fill="#64748b" stroke="#64748b" stroke-width="1.2" points="873.48,-580.78 880.48,-578.33 873.48,-575.88 873.48,-580.78"/>
<text text-anchor="middle" x="504" y="-330.8" font-family="Helvetica,sans-Serif" font-size="9.00">supports</text>
</g>
<!-- Sleep&#45;&gt;EmotionReg -->
<g id="edge5" class="edge">
<title>Sleep&#45;&gt;EmotionReg</title>
<path fill="none" stroke="#64748b" stroke-width="1.2" d="M132.19,-701.25C288.22,-701.25 737,-701.25 737,-701.25 737,-701.25 737,-170 737,-170 737,-170 844.31,-170 844.31,-170"/>
<polygon fill="#64748b" stroke="#64748b" stroke-width="1.2" points="844.31,-172.45 851.31,-170 844.31,-167.55 844.31,-172.45"/>
<text text-anchor="middle" x="504" y="-166.8" font-family="Helvetica,sans-Serif" font-size="9.00">increases probability</text>
</g>
<!-- Sleep&#45;&gt;NegMood -->
<g id="edge6" class="edge">
<title>Sleep&#45;&gt;NegMood</title>
<path fill="none" stroke="#64748b" stroke-width="1.2" d="M132.05,-703.83C291.67,-703.83 760,-703.83 760,-703.83 760,-703.83 760,-248 760,-248 760,-248 855.41,-248 855.41,-248"/>
<polygon fill="#64748b" stroke="#64748b" stroke-width="1.2" points="855.41,-250.45 862.41,-248 855.41,-245.55 855.41,-250.45"/>
<text text-anchor="middle" x="504" y="-248.8" font-family="Helvetica,sans-Serif" font-size="9.00">increases probability</text>
</g>
<!-- Sleep&#45;&gt;LowPositive -->
<g id="edge7" class="edge">
<title>Sleep&#45;&gt;LowPositive</title>
<path fill="none" stroke="#64748b" stroke-width="1.2" d="M132.23,-698.67C284.49,-698.67 714,-698.67 714,-698.67 714,-698.67 714,-92 714,-92 714,-92 850.27,-92 850.27,-92"/>
<polygon fill="#64748b" stroke="#64748b" stroke-width="1.2" points="850.27,-94.45 857.27,-92 850.27,-89.55 850.27,-94.45"/>
<text text-anchor="middle" x="504" y="-84.8" font-family="Helvetica,sans-Serif" font-size="9.00">increases probability</text>
</g>
<!-- Sleep&#45;&gt;forbidden -->
<g id="edge27" class="edge">
<title>Sleep&#45;&gt;forbidden</title>
<path fill="none" stroke="#e11d48" stroke-width="1.2" stroke-dasharray="1,5" d="M132.18,-696.08C191.58,-696.08 280,-696.08 280,-696.08 280,-696.08 280,-632.14 280,-599.17"/>
</g>
<!-- Cortisol&#45;&gt;HPA -->
<g id="edge10" class="edge">
<title>Cortisol&#45;&gt;HPA</title>
<path fill="none" stroke="#64748b" stroke-width="1.2" d="M360,-810.98C360,-779.71 360,-720.83 360,-720.83 360,-720.83 591.91,-720.83 591.91,-720.83"/>
<polygon fill="#64748b" stroke="#64748b" stroke-width="1.2" points="591.91,-723.28 598.91,-720.83 591.91,-718.38 591.91,-723.28"/>
<text text-anchor="middle" x="504" y="-751.8" font-family="Helvetica,sans-Serif" font-size="9.00">supports</text>
</g>
<!-- Context&#45;&gt;AcuteStress -->
<g id="edge11" class="edge">
<title>Context&#45;&gt;AcuteStress</title>
<path fill="none" stroke="#64748b" stroke-width="1.2" d="M136,-784.55C136,-775.21 136,-766 136,-766 136,-766 951,-766 951,-766 951,-766 951,-676.16 951,-676.16"/>
<polygon fill="#64748b" stroke="#64748b" stroke-width="1.2" points="953.45,-676.16 951,-669.16 948.55,-676.16 953.45,-676.16"/>
<text text-anchor="middle" x="504" y="-412.8" font-family="Helvetica,sans-Serif" font-size="9.00">supports</text>
</g>
<!-- Wearables&#45;&gt;StressLike -->
<g id="edge4" class="edge">
<title>Wearables&#45;&gt;StressLike</title>
<path fill="none" stroke="#64748b" stroke-width="1.2" stroke-dasharray="5,2" d="M80,-614.75C80,-551.49 80,-354 80,-354 80,-354 1471.05,-354 1471.05,-354"/>
<polygon fill="#64748b" stroke="#64748b" stroke-width="1.2" points="1471.05,-356.45 1478.05,-354 1471.05,-351.55 1471.05,-356.45"/>
<text text-anchor="middle" x="771" y="-12.8" font-family="Helvetica,sans-Serif" font-size="9.00">may indicate</text>
<text text-anchor="middle" x="771" y="-2.8" font-family="Helvetica,sans-Serif" font-size="9.00">requires baseline</text>
</g>
<!-- MultiBio&#45;&gt;Allostasis -->
<g id="edge17" class="edge">
<title>MultiBio&#45;&gt;Allostasis</title>
<path fill="none" stroke="#64748b" stroke-width="1.2" d="M126.89,-1036C170.35,-1036 228,-1036 228,-1036 228,-1036 228,-661 228,-661 228,-661 593.8,-661 593.8,-661"/>
<polygon fill="#64748b" stroke="#64748b" stroke-width="1.2" points="593.8,-663.45 600.8,-661 593.8,-658.55 593.8,-663.45"/>
<text text-anchor="middle" x="347" y="-984.8" font-family="Helvetica,sans-Serif" font-size="9.00">supports</text>
</g>
<!-- ANS&#45;&gt;Recovery -->
<g id="edge13" class="edge">
<title>ANS&#45;&gt;Recovery</title>
<path fill="none" stroke="#64748b" stroke-width="1.2" stroke-dasharray="5,2" d="M691.16,-565.67C691.16,-565.67 873.14,-565.67 873.14,-565.67"/>
<polygon fill="#64748b" stroke="#64748b" stroke-width="1.2" points="873.14,-568.12 880.14,-565.67 873.14,-563.22 873.14,-568.12"/>
<text text-anchor="middle" x="771" y="-595.8" font-family="Helvetica,sans-Serif" font-size="9.00">may indicate</text>
</g>
<!-- SNS&#45;&gt;StressLike -->
<g id="edge15" class="edge">
<title>SNS&#45;&gt;StressLike</title>
<path fill="none" stroke="#64748b" stroke-width="1.2" d="M684.89,-799.67C734.72,-799.67 806,-799.67 806,-799.67 806,-799.67 806,-363 806,-363 806,-363 1471.26,-363 1471.26,-363"/>
<polygon fill="#64748b" stroke="#64748b" stroke-width="1.2" points="1471.26,-365.45 1478.26,-363 1471.26,-360.55 1471.26,-365.45"/>
<text text-anchor="middle" x="1037" y="-742.8" font-family="Helvetica,sans-Serif" font-size="9.00">supports</text>
</g>
<!-- SNS&#45;&gt;CogLoad -->
<g id="edge14" class="edge">
<title>SNS&#45;&gt;CogLoad</title>
<path fill="none" stroke="#64748b" stroke-width="1.2" d="M684.59,-812.33C869.67,-812.33 1537,-812.33 1537,-812.33 1537,-812.33 1537,-535.44 1537,-535.44"/>
<polygon fill="#64748b" stroke="#64748b" stroke-width="1.2" points="1539.45,-535.44 1537,-528.44 1534.55,-535.44 1539.45,-535.44"/>
<text text-anchor="middle" x="1037" y="-824.8" font-family="Helvetica,sans-Serif" font-size="9.00">supports</text>
</g>
<!-- Recovery&#45;&gt;Fatigue -->
<g id="edge23" class="edge">
<title>Recovery&#45;&gt;Fatigue</title>
<path fill="none" stroke="#64748b" stroke-width="1.2" d="M918,-552.98C918,-514.5 918,-431 918,-431 918,-431 1485.51,-431 1485.51,-431"/>
<polygon fill="#64748b" stroke="#64748b" stroke-width="1.2" points="1485.51,-433.45 1492.51,-431 1485.51,-428.55 1485.51,-433.45"/>
<text text-anchor="middle" x="1160.5" y="-513.8" font-family="Helvetica,sans-Serif" font-size="9.00">supports</text>
</g>
<!-- HPA&#45;&gt;AcuteStress -->
<g id="edge16" class="edge">
<title>HPA&#45;&gt;AcuteStress</title>
<path fill="none" stroke="#64748b" stroke-width="1.2" stroke-dasharray="5,2" d="M676.17,-721.67C745.78,-721.67 885,-721.67 885,-721.67 885,-721.67 885,-676.21 885,-676.21"/>
<polygon fill="#64748b" stroke="#64748b" stroke-width="1.2" points="887.45,-676.21 885,-669.21 882.55,-676.21 887.45,-676.21"/>
<text text-anchor="middle" x="771" y="-706.8" font-family="Helvetica,sans-Serif" font-size="9.00">with context</text>
</g>
<!-- AcuteStress&#45;&gt;HPA -->
<g id="edge12" class="edge">
<title>AcuteStress&#45;&gt;HPA</title>
<path fill="none" stroke="#64748b" stroke-width="1.2" d="M918,-669.14C918,-694.02 918,-734.33 918,-734.33 918,-734.33 683.21,-734.33 683.21,-734.33"/>
<polygon fill="#64748b" stroke="#64748b" stroke-width="1.2" points="683.21,-731.88 676.21,-734.33 683.21,-736.78 683.21,-731.88"/>
<text text-anchor="middle" x="771" y="-651.8" font-family="Helvetica,sans-Serif" font-size="9.00">increases probability</text>
</g>
<!-- Allostasis&#45;&gt;StressVuln -->
<g id="edge18" class="edge">
<title>Allostasis&#45;&gt;StressVuln</title>
<path fill="none" stroke="#64748b" stroke-width="1.2" stroke-dasharray="5,2" d="M674.22,-650C717.32,-650 783,-650 783,-650 783,-650 783,-332.33 783,-332.33 783,-332.33 864.96,-332.33 864.96,-332.33"/>
<polygon fill="#64748b" stroke="#64748b" stroke-width="1.2" points="864.96,-334.78 871.96,-332.33 864.96,-329.88 864.96,-334.78"/>
<text text-anchor="middle" x="771" y="-514.8" font-family="Helvetica,sans-Serif" font-size="9.00">risk state</text>
<text text-anchor="middle" x="771" y="-504.8" font-family="Helvetica,sans-Serif" font-size="9.00">not diagnosis</text>
</g>
<!-- EmotionReg&#45;&gt;Reactivity -->
<g id="edge19" class="edge">
<title>EmotionReg&#45;&gt;Reactivity</title>
<path fill="none" stroke="#64748b" stroke-width="1.2" d="M983.58,-170C983.58,-170 1082.75,-170 1082.75,-170"/>
<polygon fill="#64748b" stroke="#64748b" stroke-width="1.2" points="1082.75,-172.45 1089.75,-170 1082.75,-167.55 1082.75,-172.45"/>
<text text-anchor="middle" x="1037" y="-172.8" font-family="Helvetica,sans-Serif" font-size="9.00">supports</text>
</g>
<!-- Reactivity&#45;&gt;AnxietyLike -->
<g id="edge20" class="edge">
<title>Reactivity&#45;&gt;AnxietyLike</title>
<path fill="none" stroke="#64748b" stroke-width="1.2" stroke-dasharray="5,2" d="M1231.22,-183.5C1231.22,-183.5 1481.47,-183.5 1481.47,-183.5"/>
<polygon fill="#64748b" stroke="#64748b" stroke-width="1.2" points="1481.47,-185.95 1488.47,-183.5 1481.47,-181.05 1481.47,-185.95"/>
<text text-anchor="middle" x="1288.5" y="-169.8" font-family="Helvetica,sans-Serif" font-size="9.00">contextual</text>
</g>
<!-- NegMood&#45;&gt;Irritability -->
<g id="edge21" class="edge">
<title>NegMood&#45;&gt;Irritability</title>
<path fill="none" stroke="#64748b" stroke-width="1.2" stroke-dasharray="5,2" d="M972.7,-261.5C972.7,-261.5 1483.72,-261.5 1483.72,-261.5"/>
<polygon fill="#64748b" stroke="#64748b" stroke-width="1.2" points="1483.72,-263.95 1490.72,-261.5 1483.72,-259.05 1483.72,-263.95"/>
<text text-anchor="middle" x="1160.5" y="-271.8" font-family="Helvetica,sans-Serif" font-size="9.00">contextual</text>
</g>
<!-- LowPositive&#45;&gt;LowAffect -->
<g id="edge22" class="edge">
<title>LowPositive&#45;&gt;LowAffect</title>
<path fill="none" stroke="#64748b" stroke-width="1.2" stroke-dasharray="5,2" d="M977.7,-105.5C977.7,-105.5 1463.59,-105.5 1463.59,-105.5"/>
<polygon fill="#64748b" stroke="#64748b" stroke-width="1.2" points="1463.59,-107.95 1470.59,-105.5 1463.59,-103.05 1463.59,-107.95"/>
<text text-anchor="middle" x="1160.5" y="-103.8" font-family="Helvetica,sans-Serif" font-size="9.00">contextual</text>
</g>
<!-- StressVuln&#45;&gt;StressLike -->
<g id="edge24" class="edge">
<title>StressVuln&#45;&gt;StressLike</title>
<path fill="none" stroke="#64748b" stroke-width="1.2" stroke-dasharray="5,2" d="M963.02,-339.5C963.02,-339.5 1471.09,-339.5 1471.09,-339.5"/>
<polygon fill="#64748b" stroke="#64748b" stroke-width="1.2" points="1471.09,-341.95 1478.09,-339.5 1471.09,-337.05 1471.09,-341.95"/>
<text text-anchor="middle" x="1160.5" y="-361.8" font-family="Helvetica,sans-Serif" font-size="9.00">contextual</text>
</g>
<!-- HRV -->
<g id="node1" class="node">
<title>HRV</title>
<path fill="#dbeafe" stroke="#2563eb" stroke-width="1.4" d="M123.5,-977C123.5,-977 35.5,-977 35.5,-977 29.5,-977 23.5,-971 23.5,-965 23.5,-965 23.5,-951 23.5,-951 23.5,-945 29.5,-939 35.5,-939 35.5,-939 123.5,-939 123.5,-939 129.5,-939 135.5,-945 135.5,-951 135.5,-951 135.5,-965 135.5,-965 135.5,-971 129.5,-977 123.5,-977"/>
<text text-anchor="middle" x="79.5" y="-961.4" font-family="Helvetica,sans-Serif" font-size="12.00">HRV ↓</text>
<text text-anchor="middle" x="79.5" y="-948.4" font-family="Helvetica,sans-Serif" font-size="12.00">low resting HRV</text>
</g>
<!-- EDA -->
<g id="node2" class="node">
<title>EDA</title>
<path fill="#dbeafe" stroke="#2563eb" stroke-width="1.4" d="M113.5,-899C113.5,-899 45.5,-899 45.5,-899 39.5,-899 33.5,-893 33.5,-887 33.5,-887 33.5,-875 33.5,-875 33.5,-869 39.5,-863 45.5,-863 45.5,-863 113.5,-863 113.5,-863 119.5,-863 125.5,-869 125.5,-875 125.5,-875 125.5,-887 125.5,-887 125.5,-893 119.5,-899 113.5,-899"/>
<text text-anchor="middle" x="79.5" y="-877.9" font-family="Helvetica,sans-Serif" font-size="12.00">EDA ↑ / SCR</text>
</g>
<!-- Sleep -->
<g id="node3" class="node">
<title>Sleep</title>
<path fill="#dbeafe" stroke="#2563eb" stroke-width="1.4" d="M120,-744.5C120,-744.5 39,-744.5 39,-744.5 33,-744.5 27,-738.5 27,-732.5 27,-732.5 27,-705.5 27,-705.5 27,-699.5 33,-693.5 39,-693.5 39,-693.5 120,-693.5 120,-693.5 126,-693.5 132,-699.5 132,-705.5 132,-705.5 132,-732.5 132,-732.5 132,-738.5 126,-744.5 120,-744.5"/>
<text text-anchor="middle" x="79.5" y="-728.9" font-family="Helvetica,sans-Serif" font-size="12.00">Sleep loss</text>
<text text-anchor="middle" x="79.5" y="-715.9" font-family="Helvetica,sans-Serif" font-size="12.00">restriction</text>
<text text-anchor="middle" x="79.5" y="-702.9" font-family="Helvetica,sans-Serif" font-size="12.00">fragmentation</text>
</g>
<!-- Cortisol -->
<g id="node4" class="node">
<title>Cortisol</title>
<path fill="#dbeafe" stroke="#2563eb" stroke-width="1.4" d="M373,-849C373,-849 321,-849 321,-849 315,-849 309,-843 309,-837 309,-837 309,-823 309,-823 309,-817 315,-811 321,-811 321,-811 373,-811 373,-811 379,-811 385,-817 385,-823 385,-823 385,-837 385,-837 385,-843 379,-849 373,-849"/>
<text text-anchor="middle" x="347" y="-833.4" font-family="Helvetica,sans-Serif" font-size="12.00">Salivary</text>
<text text-anchor="middle" x="347" y="-820.4" font-family="Helvetica,sans-Serif" font-size="12.00">cortisol ↑</text>
</g>
<!-- Context -->
<g id="node5" class="node">
<title>Context</title>
<path fill="#dbeafe" stroke="#2563eb" stroke-width="1.4" d="M127.5,-823C127.5,-823 31.5,-823 31.5,-823 25.5,-823 19.5,-817 19.5,-811 19.5,-811 19.5,-797 19.5,-797 19.5,-791 25.5,-785 31.5,-785 31.5,-785 127.5,-785 127.5,-785 133.5,-785 139.5,-791 139.5,-797 139.5,-797 139.5,-811 139.5,-811 139.5,-817 133.5,-823 127.5,-823"/>
<text text-anchor="middle" x="79.5" y="-807.4" font-family="Helvetica,sans-Serif" font-size="12.00">Social&#45;evaluative</text>
<text text-anchor="middle" x="79.5" y="-794.4" font-family="Helvetica,sans-Serif" font-size="12.00">threat context</text>
</g>
<!-- Wearables -->
<g id="node6" class="node">
<title>Wearables</title>
<path fill="#dbeafe" stroke="#2563eb" stroke-width="1.4" d="M131,-653C131,-653 28,-653 28,-653 22,-653 16,-647 16,-641 16,-641 16,-627 16,-627 16,-621 22,-615 28,-615 28,-615 131,-615 131,-615 137,-615 143,-621 143,-627 143,-627 143,-641 143,-641 143,-647 137,-653 131,-653"/>
<text text-anchor="middle" x="79.5" y="-637.4" font-family="Helvetica,sans-Serif" font-size="12.00">Multimodal</text>
<text text-anchor="middle" x="79.5" y="-624.4" font-family="Helvetica,sans-Serif" font-size="12.00">wearable features</text>
</g>
<!-- MultiBio -->
<g id="node7" class="node">
<title>MultiBio</title>
<path fill="#dbeafe" stroke="#2563eb" stroke-width="1.4" d="M114.5,-1055C114.5,-1055 44.5,-1055 44.5,-1055 38.5,-1055 32.5,-1049 32.5,-1043 32.5,-1043 32.5,-1029 32.5,-1029 32.5,-1023 38.5,-1017 44.5,-1017 44.5,-1017 114.5,-1017 114.5,-1017 120.5,-1017 126.5,-1023 126.5,-1029 126.5,-1029 126.5,-1043 126.5,-1043 126.5,-1049 120.5,-1055 114.5,-1055"/>
<text text-anchor="middle" x="79.5" y="-1039.4" font-family="Helvetica,sans-Serif" font-size="12.00">Multi&#45;system</text>
<text text-anchor="middle" x="79.5" y="-1026.4" font-family="Helvetica,sans-Serif" font-size="12.00">biomarkers</text>
</g>
<!-- ANS -->
<g id="node8" class="node">
<title>ANS</title>
<path fill="#ede9fe" stroke="#7c3aed" stroke-width="1.4" d="M679,-591C679,-591 596,-591 596,-591 590,-591 584,-585 584,-579 584,-579 584,-565 584,-565 584,-559 590,-553 596,-553 596,-553 679,-553 679,-553 685,-553 691,-559 691,-565 691,-565 691,-579 691,-579 691,-585 685,-591 679,-591"/>
<text text-anchor="middle" x="637.5" y="-575.4" font-family="Helvetica,sans-Serif" font-size="12.00">Autonomic</text>
<text text-anchor="middle" x="637.5" y="-562.4" font-family="Helvetica,sans-Serif" font-size="12.00">regulation shift</text>
</g>
<!-- SNS -->
<g id="node9" class="node">
<title>SNS</title>
<path fill="#ede9fe" stroke="#7c3aed" stroke-width="1.4" d="M672.5,-825C672.5,-825 602.5,-825 602.5,-825 596.5,-825 590.5,-819 590.5,-813 590.5,-813 590.5,-799 590.5,-799 590.5,-793 596.5,-787 602.5,-787 602.5,-787 672.5,-787 672.5,-787 678.5,-787 684.5,-793 684.5,-799 684.5,-799 684.5,-813 684.5,-813 684.5,-819 678.5,-825 672.5,-825"/>
<text text-anchor="middle" x="637.5" y="-809.4" font-family="Helvetica,sans-Serif" font-size="12.00">Sympathetic</text>
<text text-anchor="middle" x="637.5" y="-796.4" font-family="Helvetica,sans-Serif" font-size="12.00">arousal</text>
</g>
<!-- Recovery -->
<g id="node10" class="node">
<title>Recovery</title>
<path fill="#ede9fe" stroke="#7c3aed" stroke-width="1.4" d="M942.5,-591C942.5,-591 892.5,-591 892.5,-591 886.5,-591 880.5,-585 880.5,-579 880.5,-579 880.5,-565 880.5,-565 880.5,-559 886.5,-553 892.5,-553 892.5,-553 942.5,-553 942.5,-553 948.5,-553 954.5,-559 954.5,-565 954.5,-565 954.5,-579 954.5,-579 954.5,-585 948.5,-591 942.5,-591"/>
<text text-anchor="middle" x="917.5" y="-575.4" font-family="Helvetica,sans-Serif" font-size="12.00">Recovery</text>
<text text-anchor="middle" x="917.5" y="-562.4" font-family="Helvetica,sans-Serif" font-size="12.00">deficit</text>
</g>
<!-- HPA -->
<g id="node11" class="node">
<title>HPA</title>
<path fill="#ede9fe" stroke="#7c3aed" stroke-width="1.4" d="M664,-747C664,-747 611,-747 611,-747 605,-747 599,-741 599,-735 599,-735 599,-721 599,-721 599,-715 605,-709 611,-709 611,-709 664,-709 664,-709 670,-709 676,-715 676,-721 676,-721 676,-735 676,-735 676,-741 670,-747 664,-747"/>
<text text-anchor="middle" x="637.5" y="-731.4" font-family="Helvetica,sans-Serif" font-size="12.00">HPA&#45;axis</text>
<text text-anchor="middle" x="637.5" y="-718.4" font-family="Helvetica,sans-Serif" font-size="12.00">activation</text>
</g>
<!-- AcuteStress -->
<g id="node12" class="node">
<title>AcuteStress</title>
<path fill="#ede9fe" stroke="#7c3aed" stroke-width="1.4" d="M972,-669C972,-669 863,-669 863,-669 857,-669 851,-663 851,-657 851,-657 851,-643 851,-643 851,-637 857,-631 863,-631 863,-631 972,-631 972,-631 978,-631 984,-637 984,-643 984,-643 984,-657 984,-657 984,-663 978,-669 972,-669"/>
<text text-anchor="middle" x="917.5" y="-653.4" font-family="Helvetica,sans-Serif" font-size="12.00">Acute psychosocial</text>
<text text-anchor="middle" x="917.5" y="-640.4" font-family="Helvetica,sans-Serif" font-size="12.00">stress response</text>
</g>
<!-- Allostasis -->
<g id="node13" class="node">
<title>Allostasis</title>
<path fill="#ede9fe" stroke="#7c3aed" stroke-width="1.4" d="M662,-669C662,-669 613,-669 613,-669 607,-669 601,-663 601,-657 601,-657 601,-643 601,-643 601,-637 607,-631 613,-631 613,-631 662,-631 662,-631 668,-631 674,-637 674,-643 674,-643 674,-657 674,-657 674,-663 668,-669 662,-669"/>
<text text-anchor="middle" x="637.5" y="-653.4" font-family="Helvetica,sans-Serif" font-size="12.00">Allostatic</text>
<text text-anchor="middle" x="637.5" y="-640.4" font-family="Helvetica,sans-Serif" font-size="12.00">load</text>
</g>
<!-- EmotionReg -->
<g id="node14" class="node">
<title>EmotionReg</title>
<path fill="#ffedd5" stroke="#ea580c" stroke-width="1.4" d="M971.5,-189C971.5,-189 863.5,-189 863.5,-189 857.5,-189 851.5,-183 851.5,-177 851.5,-177 851.5,-163 851.5,-163 851.5,-157 857.5,-151 863.5,-151 863.5,-151 971.5,-151 971.5,-151 977.5,-151 983.5,-157 983.5,-163 983.5,-163 983.5,-177 983.5,-177 983.5,-183 977.5,-189 971.5,-189"/>
<text text-anchor="middle" x="917.5" y="-173.4" font-family="Helvetica,sans-Serif" font-size="12.00">Emotion regulation</text>
<text text-anchor="middle" x="917.5" y="-160.4" font-family="Helvetica,sans-Serif" font-size="12.00">impairment</text>
</g>
<!-- Reactivity -->
<g id="node15" class="node">
<title>Reactivity</title>
<path fill="#ffedd5" stroke="#ea580c" stroke-width="1.4" d="M1219,-189C1219,-189 1102,-189 1102,-189 1096,-189 1090,-183 1090,-177 1090,-177 1090,-163 1090,-163 1090,-157 1096,-151 1102,-151 1102,-151 1219,-151 1219,-151 1225,-151 1231,-157 1231,-163 1231,-163 1231,-177 1231,-177 1231,-183 1225,-189 1219,-189"/>
<text text-anchor="middle" x="1160.5" y="-173.4" font-family="Helvetica,sans-Serif" font-size="12.00">Increased emotional</text>
<text text-anchor="middle" x="1160.5" y="-160.4" font-family="Helvetica,sans-Serif" font-size="12.00">reactivity</text>
</g>
<!-- NegMood -->
<g id="node16" class="node">
<title>NegMood</title>
<path fill="#ffedd5" stroke="#ea580c" stroke-width="1.4" d="M960.5,-267C960.5,-267 874.5,-267 874.5,-267 868.5,-267 862.5,-261 862.5,-255 862.5,-255 862.5,-241 862.5,-241 862.5,-235 868.5,-229 874.5,-229 874.5,-229 960.5,-229 960.5,-229 966.5,-229 972.5,-235 972.5,-241 972.5,-241 972.5,-255 972.5,-255 972.5,-261 966.5,-267 960.5,-267"/>
<text text-anchor="middle" x="917.5" y="-251.4" font-family="Helvetica,sans-Serif" font-size="12.00">Negative mood</text>
<text text-anchor="middle" x="917.5" y="-238.4" font-family="Helvetica,sans-Serif" font-size="12.00">increase</text>
</g>
<!-- LowPositive -->
<g id="node17" class="node">
<title>LowPositive</title>
<path fill="#ffedd5" stroke="#ea580c" stroke-width="1.4" d="M965.5,-111C965.5,-111 869.5,-111 869.5,-111 863.5,-111 857.5,-105 857.5,-99 857.5,-99 857.5,-85 857.5,-85 857.5,-79 863.5,-73 869.5,-73 869.5,-73 965.5,-73 965.5,-73 971.5,-73 977.5,-79 977.5,-85 977.5,-85 977.5,-99 977.5,-99 977.5,-105 971.5,-111 965.5,-111"/>
<text text-anchor="middle" x="917.5" y="-95.4" font-family="Helvetica,sans-Serif" font-size="12.00">Reduced positive</text>
<text text-anchor="middle" x="917.5" y="-82.4" font-family="Helvetica,sans-Serif" font-size="12.00">affect</text>
</g>
<!-- StressVuln -->
<g id="node18" class="node">
<title>StressVuln</title>
<path fill="#ffedd5" stroke="#ea580c" stroke-width="1.4" d="M951,-345C951,-345 884,-345 884,-345 878,-345 872,-339 872,-333 872,-333 872,-319 872,-319 872,-313 878,-307 884,-307 884,-307 951,-307 951,-307 957,-307 963,-313 963,-319 963,-319 963,-333 963,-333 963,-339 957,-345 951,-345"/>
<text text-anchor="middle" x="917.5" y="-329.4" font-family="Helvetica,sans-Serif" font-size="12.00">Stress</text>
<text text-anchor="middle" x="917.5" y="-316.4" font-family="Helvetica,sans-Serif" font-size="12.00">vulnerability</text>
</g>
<!-- Fatigue -->
<g id="node19" class="node">
<title>Fatigue</title>
<path fill="#dcfce7" stroke="#16a34a" stroke-width="1.4" d="M1568,-450C1568,-450 1505,-450 1505,-450 1499,-450 1493,-444 1493,-438 1493,-438 1493,-424 1493,-424 1493,-418 1499,-412 1505,-412 1505,-412 1568,-412 1568,-412 1574,-412 1580,-418 1580,-424 1580,-424 1580,-438 1580,-438 1580,-444 1574,-450 1568,-450"/>
<text text-anchor="middle" x="1536.5" y="-434.4" font-family="Helvetica,sans-Serif" font-size="12.00">Fatigue&#45;like</text>
<text text-anchor="middle" x="1536.5" y="-421.4" font-family="Helvetica,sans-Serif" font-size="12.00">state</text>
</g>
<!-- AnxietyLike -->
<g id="node20" class="node">
<title>AnxietyLike</title>
<path fill="#dcfce7" stroke="#16a34a" stroke-width="1.4" d="M1572.5,-216C1572.5,-216 1500.5,-216 1500.5,-216 1494.5,-216 1488.5,-210 1488.5,-204 1488.5,-204 1488.5,-190 1488.5,-190 1488.5,-184 1494.5,-178 1500.5,-178 1500.5,-178 1572.5,-178 1572.5,-178 1578.5,-178 1584.5,-184 1584.5,-190 1584.5,-190 1584.5,-204 1584.5,-204 1584.5,-210 1578.5,-216 1572.5,-216"/>
<text text-anchor="middle" x="1536.5" y="-200.4" font-family="Helvetica,sans-Serif" font-size="12.00">Anxiety&#45;like</text>
<text text-anchor="middle" x="1536.5" y="-187.4" font-family="Helvetica,sans-Serif" font-size="12.00">arousal state</text>
</g>
<!-- Irritability -->
<g id="node21" class="node">
<title>Irritability</title>
<path fill="#dcfce7" stroke="#16a34a" stroke-width="1.4" d="M1570,-294C1570,-294 1503,-294 1503,-294 1497,-294 1491,-288 1491,-282 1491,-282 1491,-268 1491,-268 1491,-262 1497,-256 1503,-256 1503,-256 1570,-256 1570,-256 1576,-256 1582,-262 1582,-268 1582,-268 1582,-282 1582,-282 1582,-288 1576,-294 1570,-294"/>
<text text-anchor="middle" x="1536.5" y="-278.4" font-family="Helvetica,sans-Serif" font-size="12.00">Irritability</text>
<text text-anchor="middle" x="1536.5" y="-265.4" font-family="Helvetica,sans-Serif" font-size="12.00">vulnerability</text>
</g>
<!-- LowAffect -->
<g id="node22" class="node">
<title>LowAffect</title>
<path fill="#dcfce7" stroke="#16a34a" stroke-width="1.4" d="M1590,-138C1590,-138 1483,-138 1483,-138 1477,-138 1471,-132 1471,-126 1471,-126 1471,-112 1471,-112 1471,-106 1477,-100 1483,-100 1483,-100 1590,-100 1590,-100 1596,-100 1602,-106 1602,-112 1602,-112 1602,-126 1602,-126 1602,-132 1596,-138 1590,-138"/>
<text text-anchor="middle" x="1536.5" y="-122.4" font-family="Helvetica,sans-Serif" font-size="12.00">Low positive&#45;affect</text>
<text text-anchor="middle" x="1536.5" y="-109.4" font-family="Helvetica,sans-Serif" font-size="12.00">state</text>
</g>
<!-- StressLike -->
<g id="node23" class="node">
<title>StressLike</title>
<path fill="#dcfce7" stroke="#16a34a" stroke-width="1.4" d="M1582.5,-372C1582.5,-372 1490.5,-372 1490.5,-372 1484.5,-372 1478.5,-366 1478.5,-360 1478.5,-360 1478.5,-346 1478.5,-346 1478.5,-340 1484.5,-334 1490.5,-334 1490.5,-334 1582.5,-334 1582.5,-334 1588.5,-334 1594.5,-340 1594.5,-346 1594.5,-346 1594.5,-360 1594.5,-360 1594.5,-366 1588.5,-372 1582.5,-372"/>
<text text-anchor="middle" x="1536.5" y="-356.4" font-family="Helvetica,sans-Serif" font-size="12.00">Acute stress&#45;like</text>
<text text-anchor="middle" x="1536.5" y="-343.4" font-family="Helvetica,sans-Serif" font-size="12.00">state</text>
</g>
<!-- CogLoad -->
<g id="node24" class="node">
<title>CogLoad</title>
<path fill="#dcfce7" stroke="#16a34a" stroke-width="1.4" d="M1580,-528C1580,-528 1493,-528 1493,-528 1487,-528 1481,-522 1481,-516 1481,-516 1481,-502 1481,-502 1481,-496 1487,-490 1493,-490 1493,-490 1580,-490 1580,-490 1586,-490 1592,-496 1592,-502 1592,-502 1592,-516 1592,-516 1592,-522 1586,-528 1580,-528"/>
<text text-anchor="middle" x="1536.5" y="-512.4" font-family="Helvetica,sans-Serif" font-size="12.00">Cognitive load /</text>
<text text-anchor="middle" x="1536.5" y="-499.4" font-family="Helvetica,sans-Serif" font-size="12.00">arousal state</text>
</g>
<!-- forbidden -->
<g id="node25" class="node">
<title>forbidden</title>
<polygon fill="#ffe4e6" stroke="#e11d48" stroke-width="1.4" points="418,-599 270,-599 270,-561 424,-561 424,-593 418,-599"/>
<polyline fill="none" stroke="#e11d48" stroke-width="1.4" points="418,-599 418,-593 "/>
<polyline fill="none" stroke="#e11d48" stroke-width="1.4" points="424,-593 418,-593 "/>
<text text-anchor="middle" x="347" y="-583.4" font-family="Helvetica,sans-Serif" font-size="12.00" fill="#881337">Forbidden shortcut:</text>
<text text-anchor="middle" x="347" y="-570.4" font-family="Helvetica,sans-Serif" font-size="12.00" fill="#881337">biomarker → diagnosis</text>
</g>
</g>
</svg>
